:SAMPLES-PER-SECOND 30
:FULLY-SPECIFIED
:DEGREES
349
root  -3.20989 41.0182 0.353696 73.1527 -89.5963 -70.1963
RightUpLeg  1.05111 -0.95895 -0.772731
RightLeg  -5.91177 -19.4753 3.00924
RightFoot  2.51472 -0.230053 2.03527
RightToes  -3.13588e-008 1.75238e-005 3.56266e-009
Spine  3.12379 1.57565 -1.86004
Spine1  -7.53748 1.43059 1.46124
HEad  -10.5105 -2.98519 3.12618
LeftShoulder1  0.908983 0.217484 -21.256
LeftArm  -36.5393 30.1067 -60.8679
LeftForeArm  54.8036 -77.4435 -52.2648
LeftHand  -0.519261 -2.81093 7.57742
RightShoulder  1.3149 1.54245 19.6865
RightArm  -18.929 20.2249 41.2887
RightForeArm  26.6815 70.1531 30.2931
RightHand  -0.460215 8.09446 -4.32698
LeftUpLeg  0.618429 1.34544 3.71305
LeftLeg  -4.33423 14.9863 -1.31567
LeftFoot  1.9587 0.425384 -3.6657
LeftToes  4.76812e-008 1.47286e-008 1.3089e-009
350
root  -3.20277 41.0195 0.397287 103.54 -89.6237 -100.402
RightUpLeg  0.756589 -0.963394 -0.868681
RightLeg  -5.78074 -19.2601 2.9235
RightFoot  2.5292 -0.239732 2.11199
RightToes  -3.13588e-008 1.75238e-005 3.56266e-009
Spine  3.31996 1.71384 -1.31312
Spine1  -7.74836 1.5904 1.1824
HEad  -11.0214 -2.26718 2.97975
LeftShoulder1  0.865836 0.352733 -21.0594
LeftArm  -37.3383 31.788 -61.3648
LeftForeArm  54.5478 -77.3479 -51.5386
LeftHand  -0.504811 -2.79803 7.3855
RightShoulder  1.15025 1.09284 18.5882
RightArm  -22.2692 23.9504 41.3803
RightForeArm  33.2902 73.5891 38.5473
RightHand  -0.485398 8.16108 -4.52235
LeftUpLeg  0.431736 1.20726 3.56428
LeftLeg  -4.32688 15.3626 -1.28415
LeftFoot  1.96137 0.423229 -3.63562
LeftToes  4.76812e-008 1.47286e-008 1.3089e-009
351
root  -3.20316 41.0202 0.452415 147.719 -89.5138 -144.536
RightUpLeg  0.599812 -0.928887 -0.976183
RightLeg  -5.6205 -18.9736 2.72903
RightFoot  2.54465 -0.257239 2.25431
RightToes  -3.13588e-008 1.75238e-005 3.56266e-009
Spine  3.82178 1.91101 -0.272901
Spine1  -8.0733 1.8939 0.0985919
HEad  -11.7552 -2.1021 2.90411
LeftShoulder1  0.849089 0.409501 -21.0172
LeftArm  -38.2887 33.6679 -61.7934
LeftForeArm  51.668 -76.7772 -48.349
LeftHand  -0.529827 -2.72776 7.80039
RightShoulder  1.04476 0.751273 18.0916
RightArm  -25.8988 27.7515 40.8559
RightForeArm  46.8912 77.1694 54.07
RightHand  -0.517306 8.44696 -4.7096
LeftUpLeg  0.50844 1.1111 3.39416
LeftLeg  -4.49783 15.8009 -1.36578
LeftFoot  1.9902 0.413708 -3.49901
LeftToes  4.76812e-008 1.47286e-008 1.3089e-009
352
root  -3.23083 41.0207 0.488491 155.122 -89.4994 -151.938
RightUpLeg  0.586495 -0.921679 -1.07381
RightLeg  -5.51551 -18.9216 2.57105
RightFoot  2.51199 -0.2639 2.31272
RightToes  -3.13588e-008 1.75238e-005 3.56266e-009
Spine  3.99679 1.92412 0.500194
Spine1  -8.06339 1.99896 -0.784292
HEad  -12.0945 -2.0474 3.28697
LeftShoulder1  0.835424 0.451828 -20.9445
LeftArm  -39.8792 35.6778 -62.9418
LeftForeArm  48.3012 -75.8779 -43.9984
LeftHand  -0.544657 -2.80716 7.94682
RightShoulder  0.971583 0.460775 18.0259
RightArm  -29.2653 31.7527 40.1551
RightForeArm  67.1341 79.1814 75.0777
RightHand  -0.517007 8.30419 -4.74572
LeftUpLeg  0.685148 1.01191 3.23241
LeftLeg  -4.76044 15.9542 -1.44864
LeftFoot  2.03145 0.408926 -3.44291
LeftToes  4.76812e-008 1.47286e-008 1.3089e-009
353
root  -3.25963 41.021 0.510658 154.734 -89.8677 -151.433
RightUpLeg  0.60862 -0.819253 -1.04622
RightLeg  -5.66357 -19.3808 2.5306
RightFoot  2.54249 -0.273226 2.38219
RightToes  -3.13588e-008 1.75238e-005 3.56266e-009
Spine  4.28246 1.88433 1.08045
Spine1  -8.45055 2.0099 -1.31764
HEad  -12.8878 -2.11664 3.82613
LeftShoulder1  0.839233 0.458844 -21.1467
LeftArm  -41.0795 37.3167 -63.6611
LeftForeArm  44.8235 -74.7101 -39.5477
LeftHand  -0.526435 -2.49095 7.99273
RightShoulder  0.829033 -0.0470101 17.4967
RightArm  -32.1738 34.831 39.7678
RightForeArm  86.7735 79.4635 95.4674
RightHand  -0.577351 8.87991 -5.07057
LeftUpLeg  0.538193 0.967539 3.19562
LeftLeg  -4.7375 15.6586 -1.42863
LeftFoot  2.02445 0.402954 -3.37361
LeftToes  4.76812e-008 1.47286e-008 1.3089e-009
354
root  -3.29378 41.0211 0.523494 36.1675 -89.4227 -32.7257
RightUpLeg  0.613255 -0.864082 -1.06295
RightLeg  -5.74567 -19.9308 2.64189
RightFoot  2.46507 -0.279647 2.43457
RightToes  -3.13588e-008 1.75238e-005 3.56266e-009
Spine  3.99369 1.75368 1.30194
Spine1  -8.17498 1.90516 -1.55081
HEad  -12.7904 -2.32781 4.2854
LeftShoulder1  0.773375 0.702721 -21.1933
LeftArm  -41.797 38.2349 -64.3386
LeftForeArm  42.3181 -73.3184 -35.1179
LeftHand  -0.462601 -3.15565 6.52626
RightShoulder  0.820986 -0.0841485 17.513
RightArm  -35.2555 36.5165 38.2222
RightForeArm  100.729 78.8419 109.878
RightHand  -0.542502 8.76273 -4.82166
LeftUpLeg  0.335323 0.933257 3.1955
LeftLeg  -4.69907 15.1172 -1.38179
LeftFoot  2.00346 0.399973 -3.35476
LeftToes  4.76812e-008 1.47286e-008 1.3089e-009
355
root  -3.34783 41.021 0.507399 8.1629 -88.7683 -4.74698
RightUpLeg  0.826267 -0.973611 -1.13214
RightLeg  -5.78462 -20.4949 2.72746
RightFoot  2.32939 -0.284223 2.50325
RightToes  -3.13588e-008 1.75238e-005 3.56266e-009
Spine  3.77863 1.79229 0.7813
Spine1  -7.96708 1.89947 -1.083
HEad  -12.3778 -2.61404 4.47777
LeftShoulder1  0.829457 0.518609 -21.3839
LeftArm  -41.8355 38.7598 -64.7673
LeftForeArm  39.698 -72.2291 -32.5641
LeftHand  -0.483571 -2.6771 7.18114
RightShoulder  0.7573 -0.327466 17.3465
RightArm  -37.6973 36.5619 37.2813
RightForeArm  107.623 78.1788 117.332
RightHand  -0.596428 9.22857 -5.11564
LeftUpLeg  0.423967 0.907358 3.16604
LeftLeg  -4.85426 14.4267 -1.396
LeftFoot  2.04566 0.404726 -3.45875
LeftToes  4.76812e-008 1.47286e-008 1.3089e-009
356
root  -3.37584 41.0206 0.487845 7.20361 -88.1416 -3.8269
RightUpLeg  0.988502 -1.04482 -1.1114
RightLeg  -5.79657 -21.0073 2.8375
RightFoot  2.2013 -0.271766 2.41446
RightToes  -3.13588e-008 1.75238e-005 3.56266e-009
Spine  3.64275 1.70058 0.50223
Spine1  -7.77793 1.79708 -0.937036
HEad  -12.1785 -3.23745 5.07572
LeftShoulder1  0.861517 0.409325 -21.4431
LeftArm  -41.6909 39.1122 -64.6026
LeftForeArm  39.4843 -71.685 -31.2148
LeftHand  -0.488304 -3.03182 6.96732
RightShoulder  0.818406 -0.111789 17.652
RightArm  -39.9598 35.5901 35.6562
RightForeArm  106.912 78.0842 117.658
RightHand  -0.58714 9.01889 -5.10583
LeftUpLeg  0.413312 0.945513 3.22124
LeftLeg  -4.83144 13.8107 -1.36518
LeftFoot  2.08539 0.398328 -3.39019
LeftToes  4.76812e-008 1.47286e-008 1.3089e-009
357
root  -3.40739 41.0199 0.47432 6.45096 -87.6828 -3.20023
RightUpLeg  1.24937 -1.08368 -1.07932
RightLeg  -5.85684 -21.412 2.90984
RightFoot  2.13476 -0.259265 2.3158
RightToes  -3.13588e-008 1.75238e-005 3.56266e-009
Spine  3.43914 1.58919 0.38221
Spine1  -7.33951 1.70033 -1.01249
HEad  -12.2461 -3.56381 5.12183
LeftShoulder1  0.830709 0.506958 -21.3142
LeftArm  -41.3232 39.3933 -64.4562
LeftForeArm  39.9981 -71.9492 -31.7695
LeftHand  -0.489105 -2.94151 7.04991
RightShoulder  0.837846 -0.0765898 17.9957
RightArm  -41.7009 34.3713 34.5526
RightForeArm  101.906 78.7124 111.35
RightHand  -0.626176 9.4274 -5.28734
LeftUpLeg  0.481719 0.909108 3.22693
LeftLeg  -4.72165 13.3816 -1.22912
LeftFoot  2.04074 0.409096 -3.58848
LeftToes  4.76812e-008 1.47286e-008 1.3089e-009
358
root  -3.43079 41.0182 0.458999 5.73111 -87.4211 -2.64572
RightUpLeg  1.4581 -1.10886 -1.05397
RightLeg  -5.7741 -21.6405 2.88607
RightFoot  2.00101 -0.254884 2.3051
RightToes  -3.13588e-008 1.75238e-005 3.56266e-009
Spine  3.43495 1.5894 0.107488
Spine1  -7.09479 1.68835 -0.843018
HEad  -12.6615 -3.85154 4.97078
LeftShoulder1  0.83066 0.513302 -21.3735
LeftArm  -41.3639 39.0042 -63.9595
LeftForeArm  40.174 -71.9515 -31.7385
LeftHand  -0.502048 -3.37044 6.90071
RightShoulder  0.918974 0.22173 18.2233
RightArm  -43.4384 32.7156 33.2716
RightForeArm  93.1907 79.2411 102.329
RightHand  -0.608195 9.22728 -5.20049
LeftUpLeg  0.642419 0.941106 3.25053
LeftLeg  -4.68494 13.062 -1.19395
LeftFoot  2.02448 0.404885 -3.55174
LeftToes  4.76812e-008 1.47286e-008 1.3089e-009
359
root  -3.44674 41.0148 0.446369 5.92227 -87.3354 -2.85822
RightUpLeg  1.52972 -1.1104 -1.02159
RightLeg  -5.8103 -21.7648 2.92069
RightFoot  1.97113 -0.256144 2.36348
RightToes  -3.13588e-008 1.75238e-005 3.56266e-009
Spine  3.3731 1.50445 0.297714
Spine1  -6.94054 1.64531 -1.19465
HEad  -12.9215 -3.82565 4.78404
LeftShoulder1  0.799188 0.611182 -21.2181
LeftArm  -41.6714 38.2209 -63.2159
LeftForeArm  40.3473 -72.0377 -31.9212
LeftHand  -0.493154 -2.93814 7.10022
RightShoulder  0.957979 0.346546 18.4531
RightArm  -44.2084 31.6258 33.5704
RightForeArm  85.9372 79.4855 94.4119
RightHand  -0.486161 8.88014 -4.33393
LeftUpLeg  0.597006 0.925264 3.25977
LeftLeg  -4.51799 12.9928 -1.10332
LeftFoot  1.94242 0.403685 -3.55866
LeftToes  4.76812e-008 1.47286e-008 1.3089e-009
